<mxfile host="app.diagrams.net" modified="2023-02-25T14:30:36.725Z" agent="5.0 (Windows NT 10.0; Win64; x64) AppleWebKit/537.36 (KHTML, like Gecko) Chrome/110.0.0.0 Safari/537.36" etag="7FEQANDZUKN8eyA8QufY" version="20.8.23" type="github">
  <diagram name="Página-1" id="ce_rGyFJO3n9Yor4TNbD">
    <mxGraphModel dx="1434" dy="800" grid="1" gridSize="10" guides="1" tooltips="1" connect="1" arrows="1" fold="1" page="1" pageScale="1" pageWidth="827" pageHeight="1169" math="0" shadow="0">
      <root>
        <mxCell id="0" />
        <mxCell id="1" parent="0" />
        <mxCell id="3c8YizZtwdTjSRJb-84W-1" value="" style="edgeStyle=orthogonalEdgeStyle;rounded=0;orthogonalLoop=1;jettySize=auto;html=1;fontSize=12;startArrow=none;startFill=0;endArrow=classic;endFill=1;" edge="1" parent="1" source="3c8YizZtwdTjSRJb-84W-2" target="3c8YizZtwdTjSRJb-84W-4">
          <mxGeometry relative="1" as="geometry" />
        </mxCell>
        <mxCell id="3c8YizZtwdTjSRJb-84W-2" value="Espera" style="ellipse;whiteSpace=wrap;html=1;aspect=fixed;" vertex="1" parent="1">
          <mxGeometry x="60" y="173" width="80" height="80" as="geometry" />
        </mxCell>
        <mxCell id="3c8YizZtwdTjSRJb-84W-48" style="edgeStyle=orthogonalEdgeStyle;rounded=0;orthogonalLoop=1;jettySize=auto;html=1;entryX=0;entryY=0.5;entryDx=0;entryDy=0;exitX=0.5;exitY=0;exitDx=0;exitDy=0;" edge="1" parent="1" source="3c8YizZtwdTjSRJb-84W-4" target="3c8YizZtwdTjSRJb-84W-47">
          <mxGeometry relative="1" as="geometry">
            <mxPoint x="270" y="170" as="sourcePoint" />
            <Array as="points">
              <mxPoint x="275" y="90" />
            </Array>
          </mxGeometry>
        </mxCell>
        <mxCell id="3c8YizZtwdTjSRJb-84W-49" value="Se não&lt;br&gt;Precisar" style="edgeLabel;html=1;align=center;verticalAlign=middle;resizable=0;points=[];" vertex="1" connectable="0" parent="3c8YizZtwdTjSRJb-84W-48">
          <mxGeometry x="0.1094" y="1" relative="1" as="geometry">
            <mxPoint x="47" y="111" as="offset" />
          </mxGeometry>
        </mxCell>
        <mxCell id="3c8YizZtwdTjSRJb-84W-53" style="edgeStyle=orthogonalEdgeStyle;rounded=0;orthogonalLoop=1;jettySize=auto;html=1;entryX=0;entryY=0.5;entryDx=0;entryDy=0;" edge="1" parent="1" source="3c8YizZtwdTjSRJb-84W-4" target="3c8YizZtwdTjSRJb-84W-52">
          <mxGeometry relative="1" as="geometry" />
        </mxCell>
        <mxCell id="3c8YizZtwdTjSRJb-84W-4" value="Começa transporte" style="ellipse;whiteSpace=wrap;html=1;aspect=fixed;" vertex="1" parent="1">
          <mxGeometry x="235" y="173" width="80" height="80" as="geometry" />
        </mxCell>
        <mxCell id="3c8YizZtwdTjSRJb-84W-28" style="edgeStyle=orthogonalEdgeStyle;rounded=0;orthogonalLoop=1;jettySize=auto;html=1;exitX=1;exitY=0.5;exitDx=0;exitDy=0;entryX=0.038;entryY=0.388;entryDx=0;entryDy=0;entryPerimeter=0;" edge="1" parent="1" source="3c8YizZtwdTjSRJb-84W-6" target="3c8YizZtwdTjSRJb-84W-27">
          <mxGeometry relative="1" as="geometry" />
        </mxCell>
        <mxCell id="3c8YizZtwdTjSRJb-84W-6" value="Sobe o elevador" style="ellipse;whiteSpace=wrap;html=1;aspect=fixed;" vertex="1" parent="1">
          <mxGeometry x="510" y="173" width="80" height="80" as="geometry" />
        </mxCell>
        <mxCell id="3c8YizZtwdTjSRJb-84W-15" value="Motor 1" style="text;html=1;resizable=0;autosize=1;align=center;verticalAlign=middle;points=[];fillColor=none;strokeColor=none;rounded=0;fontSize=12;" vertex="1" parent="1">
          <mxGeometry x="155" y="185" width="60" height="30" as="geometry" />
        </mxCell>
        <mxCell id="3c8YizZtwdTjSRJb-84W-16" value="Ligado" style="text;html=1;resizable=0;autosize=1;align=center;verticalAlign=middle;points=[];fillColor=none;strokeColor=none;rounded=0;fontSize=12;" vertex="1" parent="1">
          <mxGeometry x="155" y="215" width="60" height="30" as="geometry" />
        </mxCell>
        <mxCell id="3c8YizZtwdTjSRJb-84W-17" value="Sensor 1" style="text;html=1;resizable=0;autosize=1;align=center;verticalAlign=middle;points=[];fillColor=none;strokeColor=none;rounded=0;fontSize=12;" vertex="1" parent="1">
          <mxGeometry x="450" y="190" width="60" height="20" as="geometry" />
        </mxCell>
        <mxCell id="3c8YizZtwdTjSRJb-84W-18" value="Acionado" style="text;html=1;resizable=0;autosize=1;align=center;verticalAlign=middle;points=[];fillColor=none;strokeColor=none;rounded=0;fontSize=12;" vertex="1" parent="1">
          <mxGeometry x="445" y="215" width="70" height="20" as="geometry" />
        </mxCell>
        <mxCell id="3c8YizZtwdTjSRJb-84W-27" value="Vai para verificação" style="ellipse;whiteSpace=wrap;html=1;aspect=fixed;" vertex="1" parent="1">
          <mxGeometry x="656" y="182" width="80" height="80" as="geometry" />
        </mxCell>
        <mxCell id="3c8YizZtwdTjSRJb-84W-29" value="Sensor 2" style="text;html=1;resizable=0;autosize=1;align=center;verticalAlign=middle;points=[];fillColor=none;strokeColor=none;rounded=0;fontSize=12;" vertex="1" parent="1">
          <mxGeometry x="586" y="185" width="70" height="30" as="geometry" />
        </mxCell>
        <mxCell id="3c8YizZtwdTjSRJb-84W-30" value="Acionado" style="text;html=1;resizable=0;autosize=1;align=center;verticalAlign=middle;points=[];fillColor=none;strokeColor=none;rounded=0;fontSize=12;" vertex="1" parent="1">
          <mxGeometry x="586" y="220" width="70" height="20" as="geometry" />
        </mxCell>
        <mxCell id="3c8YizZtwdTjSRJb-84W-31" style="edgeStyle=orthogonalEdgeStyle;rounded=0;orthogonalLoop=1;jettySize=auto;html=1;exitX=0.5;exitY=1;exitDx=0;exitDy=0;entryX=0.5;entryY=0;entryDx=0;entryDy=0;" edge="1" parent="1" target="3c8YizZtwdTjSRJb-84W-32" source="3c8YizZtwdTjSRJb-84W-27">
          <mxGeometry relative="1" as="geometry">
            <mxPoint x="568" y="341" as="sourcePoint" />
          </mxGeometry>
        </mxCell>
        <mxCell id="3c8YizZtwdTjSRJb-84W-43" style="edgeStyle=orthogonalEdgeStyle;rounded=0;orthogonalLoop=1;jettySize=auto;html=1;entryX=0.5;entryY=1;entryDx=0;entryDy=0;" edge="1" parent="1" source="3c8YizZtwdTjSRJb-84W-32" target="3c8YizZtwdTjSRJb-84W-2">
          <mxGeometry relative="1" as="geometry">
            <mxPoint x="465" y="357" as="targetPoint" />
          </mxGeometry>
        </mxCell>
        <mxCell id="3c8YizZtwdTjSRJb-84W-32" value="Vai pro carrinho" style="ellipse;whiteSpace=wrap;html=1;aspect=fixed;" vertex="1" parent="1">
          <mxGeometry x="656" y="317" width="80" height="80" as="geometry" />
        </mxCell>
        <mxCell id="3c8YizZtwdTjSRJb-84W-33" value="Sensor 3" style="text;html=1;resizable=0;autosize=1;align=center;verticalAlign=middle;points=[];fillColor=none;strokeColor=none;rounded=0;fontSize=12;" vertex="1" parent="1">
          <mxGeometry x="626" y="270" width="70" height="30" as="geometry" />
        </mxCell>
        <mxCell id="3c8YizZtwdTjSRJb-84W-34" value="Acionado" style="text;html=1;resizable=0;autosize=1;align=center;verticalAlign=middle;points=[];fillColor=none;strokeColor=none;rounded=0;fontSize=12;" vertex="1" parent="1">
          <mxGeometry x="696" y="275" width="70" height="20" as="geometry" />
        </mxCell>
        <mxCell id="3c8YizZtwdTjSRJb-84W-39" value="Sensor 4" style="text;html=1;resizable=0;autosize=1;align=center;verticalAlign=middle;points=[];fillColor=none;strokeColor=none;rounded=0;fontSize=12;" vertex="1" parent="1">
          <mxGeometry x="573" y="330" width="70" height="30" as="geometry" />
        </mxCell>
        <mxCell id="3c8YizZtwdTjSRJb-84W-40" value="Acionado" style="text;html=1;resizable=0;autosize=1;align=center;verticalAlign=middle;points=[];fillColor=none;strokeColor=none;rounded=0;fontSize=12;" vertex="1" parent="1">
          <mxGeometry x="568" y="360" width="70" height="20" as="geometry" />
        </mxCell>
        <mxCell id="3c8YizZtwdTjSRJb-84W-46" value="Processo Finalizado" style="text;html=1;resizable=0;autosize=1;align=center;verticalAlign=middle;points=[];fillColor=none;strokeColor=none;rounded=0;fontSize=12;" vertex="1" parent="1">
          <mxGeometry x="240" y="330" width="130" height="30" as="geometry" />
        </mxCell>
        <mxCell id="3c8YizZtwdTjSRJb-84W-57" style="edgeStyle=orthogonalEdgeStyle;rounded=0;orthogonalLoop=1;jettySize=auto;html=1;entryX=0.5;entryY=0;entryDx=0;entryDy=0;" edge="1" parent="1" source="3c8YizZtwdTjSRJb-84W-47" target="3c8YizZtwdTjSRJb-84W-52">
          <mxGeometry relative="1" as="geometry" />
        </mxCell>
        <mxCell id="3c8YizZtwdTjSRJb-84W-47" value="Raio&lt;br&gt;x" style="ellipse;whiteSpace=wrap;html=1;aspect=fixed;" vertex="1" parent="1">
          <mxGeometry x="370" y="50" width="80" height="80" as="geometry" />
        </mxCell>
        <mxCell id="3c8YizZtwdTjSRJb-84W-56" style="edgeStyle=orthogonalEdgeStyle;rounded=0;orthogonalLoop=1;jettySize=auto;html=1;entryX=0;entryY=0.5;entryDx=0;entryDy=0;" edge="1" parent="1" source="3c8YizZtwdTjSRJb-84W-52" target="3c8YizZtwdTjSRJb-84W-6">
          <mxGeometry relative="1" as="geometry" />
        </mxCell>
        <mxCell id="3c8YizZtwdTjSRJb-84W-52" value="Continua Transporte" style="ellipse;whiteSpace=wrap;html=1;aspect=fixed;" vertex="1" parent="1">
          <mxGeometry x="370" y="173" width="80" height="80" as="geometry" />
        </mxCell>
        <mxCell id="3c8YizZtwdTjSRJb-84W-54" value="Sem precisar de Raio X" style="edgeLabel;html=1;align=center;verticalAlign=middle;resizable=0;points=[];" vertex="1" connectable="0" parent="1">
          <mxGeometry x="290" y="80" as="geometry" />
        </mxCell>
      </root>
    </mxGraphModel>
  </diagram>
</mxfile>
